<svg id="visual" viewBox="0 0 900 600" width="900" height="600" xmlns="http://www.w3.org/2000/svg" xmlns:xlink="http://www.w3.org/1999/xlink" version="1.1"><rect x="0" y="0" width="900" height="600" fill="#001220"></rect><defs><linearGradient id="grad1_0" x1="33.3%" y1="0%" x2="100%" y2="100%"><stop offset="20%" stop-color="#fbae3c" stop-opacity="1"></stop><stop offset="80%" stop-color="#fbae3c" stop-opacity="1"></stop></linearGradient></defs><defs><linearGradient id="grad1_1" x1="33.3%" y1="0%" x2="100%" y2="100%"><stop offset="20%" stop-color="#fbae3c" stop-opacity="1"></stop><stop offset="80%" stop-color="#eb7458" stop-opacity="1"></stop></linearGradient></defs><defs><linearGradient id="grad1_2" x1="33.3%" y1="0%" x2="100%" y2="100%"><stop offset="20%" stop-color="#b84e6c" stop-opacity="1"></stop><stop offset="80%" stop-color="#eb7458" stop-opacity="1"></stop></linearGradient></defs><defs><linearGradient id="grad1_3" x1="33.3%" y1="0%" x2="100%" y2="100%"><stop offset="20%" stop-color="#b84e6c" stop-opacity="1"></stop><stop offset="80%" stop-color="#713c69" stop-opacity="1"></stop></linearGradient></defs><defs><linearGradient id="grad1_4" x1="33.3%" y1="0%" x2="100%" y2="100%"><stop offset="20%" stop-color="#2d2b4c" stop-opacity="1"></stop><stop offset="80%" stop-color="#713c69" stop-opacity="1"></stop></linearGradient></defs><defs><linearGradient id="grad1_5" x1="33.3%" y1="0%" x2="100%" y2="100%"><stop offset="20%" stop-color="#2d2b4c" stop-opacity="1"></stop><stop offset="80%" stop-color="#001220" stop-opacity="1"></stop></linearGradient></defs><defs><linearGradient id="grad2_0" x1="0%" y1="0%" x2="66.7%" y2="100%"><stop offset="20%" stop-color="#fbae3c" stop-opacity="1"></stop><stop offset="80%" stop-color="#fbae3c" stop-opacity="1"></stop></linearGradient></defs><defs><linearGradient id="grad2_1" x1="0%" y1="0%" x2="66.7%" y2="100%"><stop offset="20%" stop-color="#eb7458" stop-opacity="1"></stop><stop offset="80%" stop-color="#fbae3c" stop-opacity="1"></stop></linearGradient></defs><defs><linearGradient id="grad2_2" x1="0%" y1="0%" x2="66.7%" y2="100%"><stop offset="20%" stop-color="#eb7458" stop-opacity="1"></stop><stop offset="80%" stop-color="#b84e6c" stop-opacity="1"></stop></linearGradient></defs><defs><linearGradient id="grad2_3" x1="0%" y1="0%" x2="66.7%" y2="100%"><stop offset="20%" stop-color="#713c69" stop-opacity="1"></stop><stop offset="80%" stop-color="#b84e6c" stop-opacity="1"></stop></linearGradient></defs><defs><linearGradient id="grad2_4" x1="0%" y1="0%" x2="66.7%" y2="100%"><stop offset="20%" stop-color="#713c69" stop-opacity="1"></stop><stop offset="80%" stop-color="#2d2b4c" stop-opacity="1"></stop></linearGradient></defs><defs><linearGradient id="grad2_5" x1="0%" y1="0%" x2="66.7%" y2="100%"><stop offset="20%" stop-color="#001220" stop-opacity="1"></stop><stop offset="80%" stop-color="#2d2b4c" stop-opacity="1"></stop></linearGradient></defs><g transform="translate(900, 0)"><path d="M0 432.7C-64.3 435.4 -128.5 438.2 -165.6 399.7C-202.6 361.3 -212.4 281.5 -232.6 232.6C-252.9 183.7 -283.7 165.7 -318.7 132C-353.8 98.4 -393.2 49.2 -432.7 0L0 0Z" fill="#131f37"></path><path d="M0 360.6C-53.6 362.9 -107.1 365.2 -138 333.1C-168.8 301 -177 234.6 -193.9 193.9C-210.8 153.1 -236.4 138.1 -265.6 110C-294.9 82 -327.7 41 -360.6 0L0 0Z" fill="#4d345e"></path><path d="M0 288.4C-42.8 290.3 -85.7 292.1 -110.4 266.5C-135.1 240.8 -141.6 187.7 -155.1 155.1C-168.6 122.5 -189.1 110.4 -212.5 88C-235.9 65.6 -262.2 32.8 -288.4 0L0 0Z" fill="#96446e"></path><path d="M0 216.3C-32.1 217.7 -64.3 219.1 -82.8 199.9C-101.3 180.6 -106.2 140.8 -116.3 116.3C-126.5 91.9 -141.8 82.8 -159.4 66C-176.9 49.2 -196.6 24.6 -216.3 0L0 0Z" fill="#d55e64"></path><path d="M0 144.2C-21.4 145.1 -42.8 146.1 -55.2 133.2C-67.5 120.4 -70.8 93.8 -77.5 77.5C-84.3 61.2 -94.6 55.2 -106.2 44C-117.9 32.8 -131.1 16.4 -144.2 0L0 0Z" fill="#f88f4a"></path><path d="M0 72.1C-10.7 72.6 -21.4 73 -27.6 66.6C-33.8 60.2 -35.4 46.9 -38.8 38.8C-42.2 30.6 -47.3 27.6 -53.1 22C-59 16.4 -65.5 8.2 -72.1 0L0 0Z" fill="#fbae3c"></path></g><g transform="translate(0, 600)"><path d="M0 -432.7C67.3 -439.3 134.7 -445.9 165.6 -399.7C196.5 -353.5 191 -254.4 201.5 -201.5C212.1 -148.6 238.7 -141.8 279.9 -116C321.1 -90.1 376.9 -45 432.7 0L0 0Z" fill="#131f37"></path><path d="M0 -360.6C56.1 -366.1 112.2 -371.6 138 -333.1C163.7 -294.6 159.1 -212 167.9 -167.9C176.7 -123.8 198.9 -118.2 233.3 -96.6C267.6 -75 314.1 -37.5 360.6 0L0 0Z" fill="#4d345e"></path><path d="M0 -288.4C44.9 -292.9 89.8 -297.3 110.4 -266.5C131 -235.7 127.3 -169.6 134.4 -134.4C141.4 -99.1 159.2 -94.6 186.6 -77.3C214.1 -60 251.3 -30 288.4 0L0 0Z" fill="#96446e"></path><path d="M0 -216.3C33.7 -219.7 67.3 -223 82.8 -199.9C98.2 -176.8 95.5 -127.2 100.8 -100.8C106 -74.3 119.4 -70.9 140 -58C160.6 -45 188.5 -22.5 216.3 0L0 0Z" fill="#d55e64"></path><path d="M0 -144.2C22.4 -146.4 44.9 -148.6 55.2 -133.2C65.5 -117.8 63.7 -84.8 67.2 -67.2C70.7 -49.5 79.6 -47.3 93.3 -38.7C107 -30 125.6 -15 144.2 0L0 0Z" fill="#f88f4a"></path><path d="M0 -72.1C11.2 -73.2 22.4 -74.3 27.6 -66.6C32.7 -58.9 31.8 -42.4 33.6 -33.6C35.3 -24.8 39.8 -23.6 46.7 -19.3C53.5 -15 62.8 -7.5 72.1 0L0 0Z" fill="#fbae3c"></path></g></svg>